<svg
    width="72mm"
    height="10mm"
    viewBox="0 0 72 10"
    version="1.1"
    xmlns="http://www.w3.org/2000/svg">
  <g
      style="fill:#0D46A1;">
    <path
        d="m 6.2489836,1.2775739 2.5268432,7.0861524 h 1.0404649 v 1.171677 H 6.1375052 V 8.3637263 H 7.3575741 L 6.6329647,6.2322715 H 3.2452607 L 2.5206511,8.3637263 h 1.1829095 v 1.171677 H 1.1501834e-6 V 8.3637263 H 1.1271714 L 3.6416282,1.2775739 H 2.5206511 v -1.134283 h 4.8493095 v 1.134283 z m -1.2758081,0 H 4.9298231 L 3.6106623,5.1291501 h 2.6507081 z"
        />
    <path
        d="m 12.708536,0.77898795 q 0,0.31784855 -0.22915,0.54844455 -0.22915,0.230596 -0.545005,0.230596 -0.315856,0 -0.538813,-0.230596 -0.222956,-0.230596 -0.222956,-0.54844455 0,-0.31784852 0.222956,-0.54844451 0.222957,-0.230595994533 0.538813,-0.230595994533 0.328242,0 0.551198,0.224363664533 0.222957,0.22436367 0.222957,0.55467684 z m 0.9166,7.60966765 V 9.5354033 H 10.336524 V 8.3886556 h 1.015692 V 4.1382106 H 10.336524 V 2.9852307 h 2.297693 v 5.4034249 z"
        />
    <path
        d="M 16.758917,6.9053625 V 8.3886556 H 18.17717 V 9.5354033 H 14.182528 V 8.3886556 h 1.306775 V 4.1382106 H 14.182528 V 2.9852307 h 2.322467 V 4.4685238 Q 16.895169,3.5897661 17.47114,3.2469883 18.053305,2.8979781 19.130929,2.8979781 h 0.291083 v 1.3025558 h -0.278696 q -1.040465,0 -1.548311,0.2742222 -0.507846,0.2742223 -0.675064,0.8288991 -0.161024,0.5546769 -0.161024,1.6017073 z"
        />
    <path
        d="m 28.173065,0.1432909 h 3.232873 v 1.1716769 h -1.12717 v 7.0487585 h 1.12717 v 1.171677 h -3.511569 v -1.171677 h 1.102398 V 1.3149678 l -3.2081,8.3201526 H 25.50997 L 22.326644,1.3149678 v 7.0487585 h 1.028077 v 1.171677 H 20.041336 V 8.3637263 H 21.1747 V 1.3149678 H 20.041336 V 0.1432909 h 3.201908 l 2.458717,6.4317584 z"
        />
    <path
        d="m 37.419816,5.2974229 v 3.0912327 h 1.090011 V 9.5354033 H 36.292646 V 8.7314334 q -0.928986,0.9161517 -2.068543,0.9161517 -0.600744,0 -1.102397,-0.2804546 Q 32.626247,9.0866759 32.322778,8.6192516 32.025502,8.145595 32.025502,7.5722212 q 0,-0.6170001 0.328241,-1.0968891 0.334436,-0.4861212 0.898021,-0.7478788 0.563585,-0.2617577 1.133364,-0.2617577 0.953759,0 1.777461,0.5609092 V 5.3223522 q 0,-0.7665759 -0.322049,-1.096889 Q 35.518491,3.89515 34.781495,3.89515 q -0.520233,0 -0.873247,0.193202 -0.346821,0.1869697 -0.575971,0.5733738 L 32.106014,4.356342 q 0.414947,-0.7790405 1.120977,-1.1592123 0.70603,-0.3864041 1.678369,-0.3864041 1.306774,0 1.907519,0.5983031 0.606937,0.5983031 0.606937,1.8883942 z m -3.022302,3.3592227 q 0.941373,0 1.765075,-0.7915052 V 7.0985645 q -0.836088,-0.654394 -1.672177,-0.654394 -0.507845,0 -0.87944,0.3240809 -0.365401,0.3178485 -0.365401,0.8039698 0,0.4674243 0.322048,0.7790405 0.322049,0.3053839 0.829895,0.3053839 z"
        />
    <path
        d="M 43.848077,3.4588873 V 2.9852307 h 1.139558 V 5.4656956 H 43.848077 Q 43.773756,4.7489784 43.2783,4.3750389 42.78284,3.9948672 42.13255,3.9948672 q -0.557393,0 -1.003306,0.2991515 -0.43972,0.2991516 -0.681257,0.8102021 -0.241536,0.5110506 -0.241536,1.1155861 0,1.0283334 0.545005,1.6827274 0.545006,0.6481618 1.436833,0.6481618 1.381093,0 1.950872,-1.2900911 l 1.065237,0.5110505 q -0.898021,1.9569498 -3.071848,1.9569498 -0.97234,0 -1.727916,-0.461192 -0.755575,-0.461192 -1.170522,-1.2651618 -0.408754,-0.8039698 -0.408754,-1.7824446 0,-0.959778 0.414947,-1.7450508 0.42114,-0.7852728 1.151943,-1.2215355 0.730803,-0.442495 1.628823,-0.442495 1.065238,0 1.827006,0.6481617 z"
        />
    <path
        d="m 50.326208,2.8107256 q 1.81462,0 1.81462,1.9756467 v 3.6022833 h 1.102397 v 1.1467477 h -2.384398 v -4.287839 q 0,-0.7042526 -0.204377,-0.9909395 -0.198184,-0.2866869 -0.619324,-0.2866869 -0.712224,0 -1.85178,0.8413637 v 3.577354 h 1.12717 V 9.5354033 H 45.737015 V 8.3886556 h 1.16433 V 1.2775739 h -1.16433 v -1.134283 h 2.446331 v 3.6085156 q 1.151943,-0.9410809 2.142862,-0.9410809 z"
        />
    <path
        d="m 56.160245,0.77898795 q 0,0.31784855 -0.22915,0.54844455 -0.22915,0.230596 -0.545006,0.230596 -0.315855,0 -0.538812,-0.230596 -0.222957,-0.230596 -0.222957,-0.54844455 0,-0.31784852 0.222957,-0.54844451 0.222957,-0.230595994533 0.538812,-0.230595994533 0.328242,0 0.551199,0.224363664533 0.222957,0.22436367 0.222957,0.55467684 z m 0.9166,7.60966765 V 9.5354033 H 53.788233 V 8.3886556 h 1.015691 V 4.1382106 H 53.788233 V 2.9852307 h 2.297693 v 5.4034249 z"
        />
    <path
        d="m 64.038048,5.1291501 v 3.2595055 h 1.090011 V 9.5354033 H 62.756047 V 5.2101704 q 0,-0.6170001 -0.179604,-0.8849901 -0.173411,-0.2679899 -0.575972,-0.2679899 -0.854667,0 -1.919905,0.8475961 v 3.4838691 h 1.120977 V 9.5354033 H 57.671394 V 8.3886556 h 1.14575 v -4.250445 h -1.14575 V 2.9852307 h 2.409172 v 0.7915051 q 1.195296,-0.8787577 2.248147,-0.8787577 0.873247,0 1.288194,0.5422122 0.421141,0.5422122 0.421141,1.6889598 z"
        />
    <path
        d="m 71.952647,6.587514 h -5.456248 q 0.117672,0.9410809 0.72461,1.4895254 0.606938,0.5422122 1.486378,0.5422122 0.644098,0 1.195297,-0.2679899 0.551198,-0.26799 0.922793,-0.8226668 l 1.12717,0.5110506 q -0.532619,0.8351314 -1.399673,1.2651618 -0.86086,0.423798 -1.876553,0.423798 -1.052851,0 -1.870359,-0.442495 -0.817508,-0.442495 -1.275808,-1.2340002 -0.452107,-0.7915051 -0.452107,-1.7824447 0,-0.9847072 0.445913,-1.7762123 0.452107,-0.7915052 1.232456,-1.2340002 0.780349,-0.4487273 1.721721,-0.4487273 1.028079,0 1.789848,0.461192 0.767962,0.4549596 1.207682,1.308788 0.439721,0.8475961 0.47688,2.0068084 z M 68.50301,3.8826853 q -0.72461,0 -1.269614,0.4923536 Q 66.68839,4.8611602 66.533559,5.66513 h 4.075154 Q 70.429109,4.8611602 69.846944,4.3750389 69.264779,3.8826853 68.50301,3.8826853 Z"
        />
  </g>
</svg>